<svg width="6975" height="1459" viewBox="0 0 6975 1459" fill="none" xmlns="http://www.w3.org/2000/svg">
<path d="M886.73 249.504C920.06 249.504 947.08 276.524 947.08 309.854V1174.88C947.08 1190.06 934.77 1202.37 919.59 1202.37H726.17C710.99 1202.37 698.68 1190.06 698.68 1174.88V847.464C698.68 822.664 668.44 810.544 651.31 828.474L504.56 982.124C499.37 987.554 492.19 990.624 484.68 990.624H481.1C473.56 990.624 466.35 987.524 461.16 982.054L315.83 828.874C298.73 810.854 268.4 822.954 268.4 847.794V1174.88C268.4 1190.06 256.09 1202.37 240.91 1202.37H47.49C32.31 1202.37 20 1190.06 20 1174.88V309.854C20 276.524 47.02 249.504 80.35 249.504H82.74C99.83 249.504 116.12 256.754 127.57 269.444L461.27 639.684C472.12 651.724 490.98 651.814 501.94 639.864L842.27 269.054C853.7 256.604 869.83 249.514 886.73 249.514V249.504Z" fill="#316DF6"/>
<path d="M1591.81 1016.76V1174.88C1591.81 1190.06 1579.5 1202.37 1564.32 1202.37H1137.44C1122.26 1202.37 1109.95 1190.06 1109.95 1174.88V1016.76C1109.95 1001.58 1122.26 989.275 1137.44 989.275H1203.26C1218.44 989.275 1230.75 976.965 1230.75 961.785V492.465C1230.75 477.285 1218.44 464.975 1203.26 464.975L1146.94 463.975C1131.76 463.975 1119.45 451.665 1119.45 436.485V279.715C1119.45 264.535 1131.76 252.225 1146.94 252.225H1554.82C1570 252.225 1582.31 264.535 1582.31 279.715V436.485C1582.31 451.665 1570 463.975 1554.82 463.975H1498.5C1483.32 463.975 1471.01 476.285 1471.01 491.465V961.785C1471.01 976.965 1483.32 989.275 1498.5 989.275H1564.32C1579.5 989.275 1591.81 1001.58 1591.81 1016.76Z" fill="#316DF6"/>
<path d="M2216.18 918.684C2216.18 852.174 2137.45 841.314 2042.44 835.884C1836.12 820.954 1700.39 750.374 1697.67 544.054C1689.73 144.284 2391.81 134.384 2421.56 514.354C2422.81 530.364 2410.21 544.054 2394.15 544.054H2215.88C2203.35 544.054 2192.34 535.604 2189.27 523.454C2162.97 419.414 1936.09 435.214 1928.42 541.334C1922.99 613.274 1993.57 628.204 2079.09 637.704C2267.76 658.064 2452.36 682.494 2452.36 920.034C2452.36 1309.48 1715.51 1329.2 1685.04 941.374C1683.79 925.454 1696.49 911.894 1712.46 911.894H1895.42C1907.44 911.894 1918.24 919.654 1921.66 931.184C1951.55 1032.04 2216.19 1023.7 2216.19 918.684H2216.18Z" fill="#316DF6"/>
<path d="M2536.51 441.915V279.715C2536.51 264.535 2548.82 252.225 2564 252.225H3214.85C3230.03 252.225 3242.34 264.535 3242.34 279.715V441.915C3242.34 457.095 3230.03 469.405 3214.85 469.405H3037.72C3022.54 469.405 3010.23 481.715 3010.23 496.895V1174.88C3010.23 1190.06 2997.92 1202.37 2982.74 1202.37H2797.47C2782.29 1202.37 2769.98 1190.06 2769.98 1174.88V496.895C2769.98 481.715 2757.67 469.405 2742.49 469.405H2564C2548.82 469.405 2536.51 457.095 2536.51 441.915Z" fill="#316DF6"/>
<path d="M3958.68 469.405H3662.11C3646.93 469.405 3634.62 481.715 3634.62 496.895V576.295C3634.62 591.475 3646.93 603.785 3662.11 603.785H3930.18C3945.36 603.785 3957.67 616.095 3957.67 631.275V792.115C3957.67 807.295 3945.36 819.605 3930.18 819.605H3662.11C3646.93 819.605 3634.62 831.915 3634.62 847.095V959.065C3634.62 974.245 3646.93 986.555 3662.11 986.555H3970.9C3986.08 986.555 3998.39 998.865 3998.39 1014.04V1174.88C3998.39 1190.06 3986.08 1202.37 3970.9 1202.37H3420.5C3405.32 1202.37 3393.01 1190.06 3393.01 1174.88V279.715C3393.01 264.535 3405.32 252.225 3420.5 252.225H3958.68C3973.86 252.225 3986.17 264.535 3986.17 279.715V441.915C3986.17 457.095 3973.86 469.405 3958.68 469.405Z" fill="#316DF6"/>
<path d="M5009.62 1174.88C5009.62 1190.06 4997.31 1202.37 4982.13 1202.37H4753.95C4744.17 1202.37 4735.12 1197.17 4730.2 1188.72L4583.22 936.415C4578.3 927.965 4569.25 922.765 4559.47 922.765H4476.53C4461.35 922.765 4449.04 935.075 4449.04 950.255V1174.88C4449.04 1190.06 4436.73 1202.37 4421.55 1202.37H4233.56C4218.38 1202.37 4206.07 1190.06 4206.07 1174.88V279.715C4206.07 264.535 4218.38 252.225 4233.56 252.225H4622.78C4985.59 253.545 5059.88 678.045 4843.14 851.395C4832.31 860.065 4829.66 875.455 4836.95 887.265L5005.53 1160.44C5008.21 1164.78 5009.63 1169.78 5009.63 1174.88H5009.62ZM4622.77 469.405C4574.81 468.265 4524.93 469.045 4476.36 469.315C4461.24 469.405 4449.03 481.685 4449.03 496.805V676.735C4449.03 691.915 4461.34 704.225 4476.52 704.225H4622.77C4754.43 704.225 4761.22 470.755 4622.77 469.405Z" fill="#316DF6"/>
<path d="M5932.61 1016.76V1174.88C5932.61 1190.06 5920.3 1202.37 5905.12 1202.37H5478.24C5463.06 1202.37 5450.75 1190.06 5450.75 1174.88V1016.76C5450.75 1001.58 5463.06 989.275 5478.24 989.275H5544.06C5559.24 989.275 5571.55 976.965 5571.55 961.785V491.465C5571.55 476.285 5559.24 463.975 5544.06 463.975H5487.74C5472.56 463.975 5460.25 451.665 5460.25 436.485V279.715C5460.25 264.535 5472.56 252.225 5487.74 252.225H5895.62C5910.8 252.225 5923.11 264.535 5923.11 279.715V436.485C5923.11 451.665 5910.8 463.975 5895.62 463.975H5839.3C5824.12 463.975 5811.81 476.285 5811.81 491.465V961.785C5811.81 976.965 5824.12 989.275 5839.3 989.275H5905.12C5920.3 989.275 5932.61 1001.58 5932.61 1016.76Z" fill="#316DF6"/>
<path d="M6643.05 1082.92H6305.29C6294.05 1082.92 6283.82 1089.44 6279.07 1099.63L6238.99 1185.66C6234.24 1195.85 6224.02 1202.37 6212.77 1202.37H6022.59C6006.62 1202.37 5993.67 1189.42 5993.67 1173.45V1173.43C5993.67 1169.25 5994.58 1165.11 5996.33 1161.32L6399.34 287.494C6412.69 258.544 6441.66 240.004 6473.53 240.004C6505.37 240.004 6534.31 258.504 6547.68 287.404L6952 1161.3C6953.76 1165.11 6954.67 1169.25 6954.67 1173.45C6954.67 1189.42 6941.72 1202.37 6925.75 1202.37H6735.57C6724.33 1202.37 6714.1 1195.85 6709.35 1185.66L6669.27 1099.63C6664.52 1089.44 6654.3 1082.92 6643.05 1082.92ZM6446.56 686.624L6382.89 834.914C6374.69 854.004 6388.69 875.244 6409.47 875.244H6538.42C6559.31 875.244 6573.31 853.784 6564.89 834.664L6499.61 686.374C6489.42 663.234 6456.54 663.384 6446.56 686.614V686.624Z" fill="#316DF6"/>
</svg>
